<?xml version="1.0" encoding="UTF-8"?>

<svg xmlns="http://www.w3.org/2000/svg" viewBox="0 0 920 440" role="img">
  <rect width="920" height="440" fill="#fff"/>
  <text x="460" y="36" text-anchor="middle" font-family="Inter, system-ui, sans-serif" font-size="18" font-weight="700" fill="#0a0a0a">Consensus engine · assembly</text>
  <g font-family="Inter, system-ui, sans-serif">
    <rect x="40" y="70" width="240" height="110" rx="8" fill="#2d7a25" fill-opacity="0.14" stroke="#2d7a25" stroke-width="2"/>
    <text x="160" y="115" text-anchor="middle" font-size="15" font-weight="700" fill="#2d7a25">Standards engine</text>
    <text x="160" y="145" text-anchor="middle" font-size="12" fill="#59615a">Core part · Ch. 6</text>
    <rect x="340" y="70" width="240" height="110" rx="8" fill="#6bed4a" fill-opacity="0.15" stroke="#2d7a25" stroke-width="2"/>
    <text x="460" y="115" text-anchor="middle" font-size="15" font-weight="700" fill="#2d7a25">Clarity Method</text>
    <text x="460" y="145" text-anchor="middle" font-size="12" fill="#59615a">Production line · Ch. 7</text>
    <rect x="640" y="70" width="240" height="110" rx="8" fill="#6bed4a" fill-opacity="0.15" stroke="#2d7a25" stroke-width="2"/>
    <text x="760" y="115" text-anchor="middle" font-size="15" font-weight="700" fill="#2d7a25">Interference Method</text>
    <text x="760" y="145" text-anchor="middle" font-size="12" fill="#59615a">Production line · Ch. 8</text>
  </g>
  <g stroke="#2d7a25" stroke-width="2" fill="none">
    <path d="M160 180 L160 240"/><path d="M460 180 L460 240"/><path d="M760 180 L760 240"/>
  </g>
  <g fill="#2d7a25">
    <polygon points="160,248 153,232 167,232"/>
    <polygon points="460,248 453,232 467,232"/>
    <polygon points="760,248 753,232 767,232"/>
  </g>
  <path d="M160 248 Q160 290 460 290 Q760 290 760 248" fill="none" stroke="#d5dbd6" stroke-width="2"/>
  <line x1="460" y1="290" x2="460" y2="318" stroke="#2d7a25" stroke-width="2"/>
  <polygon points="460,326 453,310 467,310" fill="#2d7a25"/>
  <rect x="260" y="330" width="400" height="70" rx="8" fill="#2d7a25" fill-opacity="0.12" stroke="#2d7a25" stroke-width="2"/>
  <text x="460" y="362" text-anchor="middle" font-family="Inter, system-ui, sans-serif" font-size="16" font-weight="700" fill="#2d7a25">Consensus engine</text>
  <text x="460" y="388" text-anchor="middle" font-family="Inter, system-ui, sans-serif" font-size="12" fill="#59615a">Assembled whole · spillover is the externality</text>
</svg>
